# xmcd CD database file
#
# Track frame offsets:
#	150
#	44213
#	90151
#	165001
#	211951
#	267222
#
# Disc length: 4306 seconds
#
# Revision: 0
# Processed by: cddbd v1.5.2PL0 Copyright (c) Steve Scherf et al.
# Submitted via: CDex 1.70beta2
#
DISCID=4310d006
DTITLE=Abraham - Le Pouvoir De Créer - CD1
DYEAR=2005
DGENRE=New Age
TTITLE0=Notre rôle dans cette magnifique cocréation
TTITLE1=Votre rôle dans cette magnifique cocréation
TTITLE2=Le meilleur des deux mondes
TTITLE3=Communication avec le monde intérieur
TTITLE4=Liberté, croissance et joie
TTITLE5=S'apprécier soi-même
EXTD=YEAR: 2005
EXTT0=
EXTT1=
EXTT2=
EXTT3=
EXTT4=
EXTT5=
PLAYORDER=
